<?xml version="1.0" encoding="UTF-8"?>
<svg width="28px" height="28px" viewBox="0 0 28 28" version="1.1" xmlns="http://www.w3.org/2000/svg" xmlns:xlink="http://www.w3.org/1999/xlink">
    <!-- Generator: Sketch 56.3 (81716) - https://sketch.com -->
    <title>Group 4</title>
    <desc>Created with Sketch.</desc>
    <g id="Page-1" stroke="none" stroke-width="1" fill="none" fill-rule="evenodd">
        <g id="Artboard" transform="translate(-73.000000, -17.000000)" fill="#4C4C4C">
            <g id="Group-4" transform="translate(73.000000, 17.000000)">
                <path d="M1,9 L27,9 C27.5522847,9 28,9.44771525 28,10 L28,23 C28,23.5522847 27.5522847,24 27,24 L1,24 C0.44771525,24 6.76353751e-17,23.5522847 0,23 L0,10 C-6.76353751e-17,9.44771525 0.44771525,9 1,9 Z M13.4166667,22.8461538 C16.9604938,22.8461538 19.8333333,20.004884 19.8333333,16.5 C19.8333333,12.995116 16.9604938,10.1538462 13.4166667,10.1538462 C9.87283952,10.1538462 7,12.995116 7,16.5 C7,20.004884 9.87283952,22.8461538 13.4166667,22.8461538 Z M24.5,11.3076923 C23.8556678,11.3076923 23.3333333,11.8300268 23.3333333,12.474359 L23.3333333,13.6025641 C23.3333333,14.2468963 23.8556678,14.7692308 24.5,14.7692308 C25.1443322,14.7692308 25.6666667,14.2468963 25.6666667,13.6025641 L25.6666667,12.474359 C25.6666667,11.8300268 25.1443322,11.3076923 24.5,11.3076923 Z" id="Combined-Shape"></path>
                <path d="M13.5,22 C10.4624339,22 8,19.5375661 8,16.5 C8,13.4624339 10.4624339,11 13.5,11 C16.5375661,11 19,13.4624339 19,16.5 C19,19.5375661 16.5375661,22 13.5,22 Z M13.5,20.7777778 C15.8625514,20.7777778 17.7777778,18.8625514 17.7777778,16.5 C17.7777778,14.1374486 15.8625514,12.2222222 13.5,12.2222222 C11.1374486,12.2222222 9.22222222,14.1374486 9.22222222,16.5 C9.22222222,18.8625514 11.1374486,20.7777778 13.5,20.7777778 Z" id="Combined-Shape"></path>
                <path d="M4,10 L7.33158192,4.48306258 C7.51263778,4.1832429 7.83735796,4 8.18760511,4 L17.8662738,4 C18.2190847,4 18.5457877,4.1859138 18.7259923,4.48923184 L22,10 L4,10 Z M9.4,6.4 C9.06862915,6.4 8.8,6.66862915 8.8,7 C8.8,7.33137085 9.06862915,7.6 9.4,7.6 L16.6,7.6 C16.9313708,7.6 17.2,7.33137085 17.2,7 C17.2,6.66862915 16.9313708,6.4 16.6,6.4 L9.4,6.4 Z" id="Combined-Shape"></path>
            </g>
        </g>
    </g>
</svg>