<?xml version="1.0" encoding="UTF-8"?>
<svg width="28px" height="28px" viewBox="0 0 28 28" version="1.1" xmlns="http://www.w3.org/2000/svg" xmlns:xlink="http://www.w3.org/1999/xlink">
    <!-- Generator: Sketch 56.3 (81716) - https://sketch.com -->
    <title>Group 5</title>
    <desc>Created with Sketch.</desc>
    <g id="Page-1" stroke="none" stroke-width="1" fill="none" fill-rule="evenodd">
        <g id="Artboard" transform="translate(-20.000000, -102.000000)" fill="#4C4C4C">
            <g id="Group-5" transform="translate(20.000000, 102.000000)">
                <path d="M24.4999354,8.31578947 C24.4999784,8.3099466 24.5,8.30409863 24.5,8.29824561 L24.5,6 L27,6 C27.5522847,6 28,6.44771525 28,7 L28,27 C28,27.5522847 27.5522847,28 27,28 L1,28 C0.44771525,28 0,27.5522847 0,27 L0,7 C0,6.44771525 0.44771525,6 1,6 L3.5,6 L3.5,8.29824561 C3.5,8.30409863 3.50002155,8.3099466 3.50006458,8.31578947 L2.83333333,8.31578947 C2.55719096,8.31578947 2.33333333,8.5396471 2.33333333,8.81578947 L2.33333333,25.1842105 C2.33333333,25.4603529 2.55719096,25.6842105 2.83333333,25.6842105 L25.1666667,25.6842105 C25.442809,25.6842105 25.6666667,25.4603529 25.6666667,25.1842105 L25.6666667,8.81578947 C25.6666667,8.5396471 25.442809,8.31578947 25.1666667,8.31578947 L24.4999354,8.31578947 L24.4999354,8.31578947 Z M19.8333979,8.31578947 L8.16660209,8.31578947 C8.16660209,8.3099466 8.16660209,8.30409863 8.16660209,8.29824561 L8.16660209,6 L19.8333979,6 L19.8333979,8.29824561 C19.8333979,8.30409863 19.8333979,8.3099466 19.8333979,8.31578947 L19.8333979,8.31578947 Z" id="Shape"></path>
                <path d="M24.5,4 L24.5,3.66666667 C24.5,2.37800225 23.4553311,1.33333333 22.1666667,1.33333333 C20.8780023,1.33333333 19.8333333,2.37800225 19.8333333,3.66666667 L19.8333333,4 L8.16666667,4 L8.16666667,3.66666667 C8.16666667,2.37800225 7.12199775,1.33333333 5.83333333,1.33333333 C4.54466892,1.33333333 3.5,2.37800225 3.5,3.66666667 L3.5,4 L2,4 C0.8954305,4 0,3.1045695 0,2 C0,0.8954305 0.8954305,-3.99680289e-15 2,-3.99680289e-15 L26,-3.99680289e-15 C27.1045695,-3.99680289e-15 28,0.8954305 28,2 C28,3.1045695 27.1045695,4 26,4 L24.5,4 L24.5,4 Z" id="Path"></path>
                <rect id="Rectangle" x="4.8" y="2.6" width="2" height="7" rx="1"></rect>
                <rect id="Rectangle" x="21.2" y="2.6" width="2" height="7" rx="1"></rect>
                <path d="M13.3977528,16.8552437 C13.6809003,16.3431781 13.8629209,15.9591347 13.9438202,15.7031019 C14.0247195,15.4470691 14.0651685,15.2038416 14.0651685,14.9734121 C14.0651685,14.1157023 13.5123651,13.6868538 12.4067416,13.6868538 C12.2988759,13.6868538 12.1977533,13.6900541 12.1033708,13.6964549 C12.0089883,13.7028558 11.9213487,13.7124569 11.8404494,13.7252585 C11.7730334,13.7380601 11.6853938,13.7444609 11.5775281,13.7444609 L11.5775281,10.1920236 C11.7662931,10.1536187 11.9348307,10.1216151 12.0831461,10.0960118 C12.2314614,10.0704085 12.3764038,10.0512064 12.5179775,10.0384047 C12.6595513,10.0256031 12.8078644,10.016002 12.9629213,10.0096012 C13.1179783,10.0032004 13.2966282,10 13.4988764,10 C14.1460707,10 14.7831429,10.0672076 15.4101124,10.2016248 C16.0370818,10.336042 16.5999975,10.556867 17.0988764,10.8641064 C17.5977553,11.1713457 18.0022456,11.580992 18.3123596,12.0930576 C18.6224735,12.6051232 18.7775281,13.2323941 18.7775281,13.9748892 C18.7775281,14.3205335 18.7370791,14.6629722 18.6561798,15.0022157 C18.5752805,15.3414591 18.4505626,15.7095007 18.2820225,16.1063516 C18.1134823,16.5032024 17.8977541,16.9480527 17.6348315,17.4409158 C17.3719088,17.9337789 17.0651703,18.5066437 16.7146067,19.1595273 L16.4516854,19.6395864 L19,19.6395864 L17.847191,23 L10,23 L13.3977528,16.8552437 Z M16.6018293,20.6363636 L16.75,20.1888112 L14.05,20.1888112 L15.9103659,16.1981352 C16.1079278,15.7630126 16.2698164,15.3403284 16.3960366,14.9300699 C16.5222567,14.5198115 16.5853659,14.1033432 16.5853659,13.6806527 C16.5853659,12.8601358 16.3521365,12.2385414 15.8856707,11.8158508 C15.419205,11.3931603 14.8182964,11.1818182 14.0829268,11.1818182 C14.0499998,11.1818182 14.0198172,11.1849262 13.992378,11.1911422 C13.9649389,11.1973582 13.940244,11.2004662 13.9182927,11.2004662 L13.8689024,11.2004662 L13.8689024,11.6480186 L13.9182927,11.6480186 C13.940244,11.6480186 13.9649389,11.6449107 13.992378,11.6386946 C14.0198172,11.6324786 14.0499998,11.6293706 14.0829268,11.6293706 C14.7085397,11.6293706 15.2106688,11.806525 15.5893293,12.1608392 C15.9679897,12.5151533 16.1573171,13.0279687 16.1573171,13.6993007 C16.1573171,14.0473988 16.1024396,14.4110315 15.9926829,14.7902098 C15.8829263,15.1693881 15.7292693,15.5765324 15.5317073,16.011655 L13.375,20.6363636 L16.6018293,20.6363636 Z" id="2" fill-rule="nonzero"></path>
            </g>
        </g>
    </g>
</svg>