<?xml version="1.0" encoding="UTF-8"?>
<svg width="28px" height="28px" viewBox="0 0 28 28" version="1.1" xmlns="http://www.w3.org/2000/svg" xmlns:xlink="http://www.w3.org/1999/xlink">
    <!-- Generator: Sketch 56.3 (81716) - https://sketch.com -->
    <title>Group 2</title>
    <desc>Created with Sketch.</desc>
    <g id="Page-1" stroke="none" stroke-width="1" fill="none" fill-rule="evenodd">
        <g id="Artboard" transform="translate(-20.000000, -55.000000)" fill="#4C4C4C">
            <g id="Group-2" transform="translate(20.000000, 55.000000)">
                <path d="M2,0 L26,0 C27.1045695,-2.02906125e-16 28,0.8954305 28,2 L28,26 C28,27.1045695 27.1045695,28 26,28 L2,28 C0.8954305,28 1.3527075e-16,27.1045695 0,26 L0,2 C-1.3527075e-16,0.8954305 0.8954305,2.02906125e-16 2,0 Z M3,2 C2.44771525,2 2,2.44771525 2,3 L2,25 C2,25.5522847 2.44771525,26 3,26 L25,26 C25.5522847,26 26,25.5522847 26,25 L26,3 C26,2.44771525 25.5522847,2 25,2 L3,2 Z" id="Combined-Shape"></path>
                <path d="M4.84915817,15.382164 C5.90226494,12.6863435 6.60957644,10.6422003 8.78940799,10.6422003 C10.9692395,10.6422003 11.6859562,16.9150272 14,17.2410623 C16.3140438,17.5670974 16.9615585,12.0538382 18.854279,12.0345406 C20.7469995,12.015243 21.8450211,14.1341617 22.8699604,17.2410623 C23.8948997,20.3479629 24.0841985,23.6841722 21.3606313,23.6841722 C18.6370642,23.6841722 8.51073039,23.6841722 6.14965363,23.6841722 C3.78857688,23.6841722 3.7960514,18.0779845 4.84915817,15.382164 Z" id="Path-2"></path>
                <circle id="Oval" cx="16" cy="7" r="2"></circle>
            </g>
        </g>
    </g>
</svg>