<?xml version="1.0" encoding="UTF-8"?>
<svg width="28px" height="28px" viewBox="0 0 28 28" version="1.1" xmlns="http://www.w3.org/2000/svg" xmlns:xlink="http://www.w3.org/1999/xlink">
    <!-- Generator: Sketch 56.3 (81716) - https://sketch.com -->
    <title>Group 3</title>
    <desc>Created with Sketch.</desc>
    <g id="Page-1" stroke="none" stroke-width="1" fill="none" fill-rule="evenodd">
        <g id="Artboard" transform="translate(-76.000000, -55.000000)" fill="#4C4C4C">
            <g id="Group-3" transform="translate(76.000000, 55.000000)">
                <path d="M14.5,28 C9.25329488,28 5,26.209139 5,24 C5,21.790861 9.25329488,20 14.5,20 C19.7467051,20 24,21.790861 24,24 C24,26.209139 19.7467051,28 14.5,28 Z M14.54,27.522 C19.4221972,27.522 23.38,25.9388789 23.38,23.986 C23.38,22.0331211 19.4221972,20.45 14.54,20.45 C9.65780281,20.45 5.7,22.0331211 5.7,23.986 C5.7,25.9388789 9.65780281,27.522 14.54,27.522 Z" id="Combined-Shape"></path>
                <ellipse id="Oval" cx="14.54" cy="23.986" rx="5" ry="2"></ellipse>
                <path d="M8.63669718,12.0931875 C7.61237745,10.8196276 7,9.20497272 7,7.44827586 C7,3.33470669 10.3578644,0 14.5,0 C18.6421356,0 22,3.33470669 22,7.44827586 C22,9.13735778 21.4338559,10.6951216 20.4797382,11.9446256 C19.0981679,14.198063 17.8891902,16.0959667 16.8528052,17.6383367 C15.0104815,20.3801217 14.8744891,24 14.5,24 C14.1255109,24 14.0129569,20.3801217 12.2035682,17.6383367 C11.2081567,16.1299796 10.0191997,14.2815965 8.63669718,12.0931875 Z M14.5,12 C16.9852814,12 19,9.98528137 19,7.5 C19,5.01471863 16.9852814,3 14.5,3 C12.0147186,3 10,5.01471863 10,7.5 C10,9.98528137 12.0147186,12 14.5,12 Z" id="Combined-Shape"></path>
                <circle id="Oval" cx="14.5" cy="7.5" r="2.5"></circle>
            </g>
        </g>
    </g>
</svg>